name C:\Users\r0593348\3dpredictsim\Results\batch_windlass\Pog_s1_tmt_bCst_d00_k1500_WL20_ig24.mot
datacolumns 128
datarows 4
range 1.55502809 1.58612865
endheader
time	pelvis_tilt	pelvis_list	pelvis_rotation	pelvis_tx	pelvis_ty	pelvis_tz	hip_flexion_l	hip_adduction_l	hip_rotation_l	hip_flexion_r	hip_adduction_r	hip_rotation_r	knee_angle_l	knee_angle_r	ankle_angle_l	ankle_angle_r	subtalar_angle_l	subtalar_angle_r	tmt_angle_l	tmt_angle_r	mtp_angle_l	mtp_angle_r	lumbar_extension	lumbar_bending	lumbar_rotation	arm_flex_l	arm_add_l	arm_rot_l	arm_flex_r	arm_add_r	arm_rot_r	elbow_flex_l	elbow_flex_r	pro_sup_l	pro_sup_r	glut_med1_l/activation	glut_med2_l/activation	glut_med3_l/activation	glut_min1_l/activation	glut_min2_l/activation	glut_min3_l/activation	semimem_l/activation	semiten_l/activation	bifemlh_l/activation	bifemsh_l/activation	sar_l/activation	add_long_l/activation	add_brev_l/activation	add_mag1_l/activation	add_mag2_l/activation	add_mag3_l/activation	tfl_l/activation	pect_l/activation	grac_l/activation	glut_max1_l/activation	glut_max2_l/activation	glut_max3_l/activation	iliacus_l/activation	psoas_l/activation	quad_fem_l/activation	gem_l/activation	peri_l/activation	rect_fem_l/activation	vas_med_l/activation	vas_int_l/activation	vas_lat_l/activation	med_gas_l/activation	lat_gas_l/activation	soleus_l/activation	tib_post_l/activation	flex_dig_l/activation	flex_hal_l/activation	tib_ant_l/activation	per_brev_l/activation	per_long_l/activation	per_tert_l/activation	ext_dig_l/activation	ext_hal_l/activation	ercspn_l/activation	intobl_l/activation	extobl_l/activation	glut_med1_r/activation	glut_med2_r/activation	glut_med3_r/activation	glut_min1_r/activation	glut_min2_r/activation	glut_min3_r/activation	semimem_r/activation	semiten_r/activation	bifemlh_r/activation	bifemsh_r/activation	sar_r/activation	add_long_r/activation	add_brev_r/activation	add_mag1_r/activation	add_mag2_r/activation	add_mag3_r/activation	tfl_r/activation	pect_r/activation	grac_r/activation	glut_max1_r/activation	glut_max2_r/activation	glut_max3_r/activation	iliacus_r/activation	psoas_r/activation	quad_fem_r/activation	gem_r/activation	peri_r/activation	rect_fem_r/activation	vas_med_r/activation	vas_int_r/activation	vas_lat_r/activation	med_gas_r/activation	lat_gas_r/activation	soleus_r/activation	tib_post_r/activation	flex_dig_r/activation	flex_hal_r/activation	tib_ant_r/activation	per_brev_r/activation	per_long_r/activation	per_tert_r/activation	ext_dig_r/activation	ext_hal_r/activation	ercspn_r/activation	intobl_r/activation	extobl_r/activation	
          1.55502809	         -2.92307781	          1.47387666	         -5.15609799	          1.94378511	          0.86152005	          0.00097707	         30.70250014	          2.24896551	         -2.72594087	        -16.95760680	         -1.27031729	          7.46829039	        -18.30378868	        -10.22468782	          1.62231824	         -0.57394853	          2.89256459	         13.56087959	         -0.41340527	         -5.53389309	          1.77828331	         26.75795149	         -1.06427416	          0.01227419	          1.65598946	         -7.57776398	        -13.56736111	         11.39403263	          6.13000488	        -13.46595213	         17.85221724	         14.81061433	         29.38530109	         86.51662706	         86.51662706	          0.05863844	          0.05000016	          0.05000060	          0.05000024	          0.05000021	          0.05000044	          0.05863904	          0.05863896	          0.07182138	          0.05000020	          0.05000037	          0.12020071	          0.15819313	          0.14585917	          0.15369629	          0.10465116	          0.05000026	          0.05863920	          0.05864142	          0.05000027	          0.05174750	          0.12548526	          0.05369350	          0.05000029	          0.28575368	          0.08620632	          0.05242098	          0.05000004	          0.13698096	          0.14091966	          0.11699742	          0.05863904	          0.05863904	          0.05863904	          0.05000008	          0.05000017	          0.05007811	          0.51719771	          0.26048294	          0.14669759	          0.29379798	          0.57978732	          0.05000008	          0.05000018	          0.10296987	          0.11093153	          0.27815843	          0.09769091	          0.05251877	          0.28879307	          0.19836021	          0.09808943	          0.05000065	          0.05000011	          0.05000007	          0.06877056	          0.08051533	          0.11587915	          0.07795251	          0.05000070	          0.05000147	          0.05000045	          0.27582805	          0.06183274	          0.05000035	          0.05000125	          0.05000088	          0.05000069	          0.26178492	          0.47943604	          0.05000009	          0.05000012	          0.05000002	          0.16033537	          0.10109633	          0.05007674	          0.07981475	          0.26444892	          0.34239299	          0.22893767	          0.19810265	          0.20593217	          0.25614517	          0.05000000	          0.11231992	          0.17538833	          0.05000005	          0.05000001	          0.05000004	          0.05000000	          0.05000009	          0.05000004	
          1.56539494	         -2.91182914	          1.59448477	         -5.37964364	          1.95947170	          0.86062274	          0.00076187	         30.08991126	          2.66776509	         -2.49333315	        -16.57952474	         -1.54064072	          7.23251792	        -18.30537618	        -12.44192591	          1.44503105	         -1.51347844	          2.37930015	         14.39652904	         -0.47427448	         -5.86167209	          2.03053593	         27.51233004	         -0.87699723	         -0.26709570	          1.71409895	         -8.47061045	        -13.56708945	         11.17984992	          5.88799840	        -13.48948908	         18.07001568	         14.70381055	         30.23744187	         86.51662706	         86.51662706	          0.05000001	          0.05000005	          0.08585794	          0.05000002	          0.05000005	          0.05000008	          0.05000002	          0.05000006	          0.06124025	          0.05000019	          0.05863899	          0.10249212	          0.13488725	          0.37306425	          0.25823686	          0.08923366	          0.05000010	          0.05000082	          0.05000220	          0.05863895	          0.05863907	          0.12975987	          0.05000009	          0.06877076	          0.55188435	          0.11093786	          0.06468676	          0.06877075	          0.24519607	          0.24094202	          0.20591912	          0.05000000	          0.05000000	          0.05000000	          0.05000000	          0.05863909	          0.05000029	          0.61824166	          0.23615560	          0.13349833	          0.58240657	          0.62008609	          0.31466097	          0.05000000	          0.08779975	          0.09458845	          0.23717853	          0.08329853	          0.05000009	          0.24624644	          0.16913666	          0.08363835	          0.05000397	          0.05000012	          0.05000022	          0.05863890	          0.06865340	          0.18520637	          0.20277671	          0.23942782	          0.05000445	          0.13641547	          0.23519160	          0.06880449	          0.05000054	          0.05000043	          0.05000030	          0.05000031	          0.22321725	          0.41116077	          0.05000007	          0.05863949	          0.05863910	          0.13671387	          0.08620249	          0.15078968	          0.12046075	          0.22548877	          0.29194967	          0.19520924	          0.16891703	          0.17559311	          0.21840841	          0.10733460	          0.09577231	          0.14954912	          0.05000005	          0.11704437	          0.05000022	          0.05000001	          0.07204374	          0.05190755	
          1.57576180	         -2.89640708	          1.72250016	         -5.58010658	          1.97535783	          0.85953264	          0.00057376	         29.31270650	          3.03650790	         -2.18791697	        -16.12450493	         -1.80108967	          6.98236780	        -18.72148660	        -14.81903951	          1.58929690	         -2.45799108	          1.80999658	         15.15682416	         -0.58993511	         -6.07842314	          2.15877774	         27.71589963	         -0.67635845	         -0.56167719	          1.76017312	         -9.35848577	        -13.57880958	         11.02970545	          5.57328776	        -13.51954511	         18.20421414	         14.58738428	         31.11200556	         86.51662706	         86.51662706	          0.32363013	          0.28932248	          0.34869197	          0.05003660	          0.05000016	          0.37657462	          0.09114621	          0.05000019	          0.09599788	          0.05000001	          0.05000011	          0.08739252	          0.26565787	          0.31810230	          0.22019219	          0.14338293	          0.05000010	          0.06877253	          0.12222112	          0.05000003	          0.05000005	          0.13443963	          0.05863902	          0.05863907	          0.47057755	          0.09459389	          0.22116494	          0.05863905	          0.21981878	          0.23233430	          0.19205316	          0.05506150	          0.05433977	          0.05863903	          0.05000001	          0.05000010	          0.05000016	          0.55454708	          0.20136380	          0.11383058	          0.51953356	          0.58621981	          0.31165658	          0.05000002	          0.08009653	          0.08065313	          0.28163940	          0.07102652	          0.05000008	          0.20996805	          0.14421849	          0.07131628	          0.05000045	          0.05000018	          0.05000036	          0.05000001	          0.05853903	          0.16825670	          0.33598889	          0.20415403	          0.06768866	          0.11631821	          0.26259758	          0.05867057	          0.05000092	          0.05862121	          0.05863887	          0.05863911	          0.19033161	          0.37871720	          0.05863895	          0.05000061	          0.05000006	          0.11657239	          0.07350269	          0.12857449	          0.10271379	          0.19226846	          0.24893795	          0.16644988	          0.14403121	          0.14972375	          0.18623124	          0.21515385	          0.09986673	          0.14911959	          0.42214432	          0.23621678	          0.17702997	          0.07675437	          0.06142984	          0.05863903	
          1.58612865	         -2.87905742	          1.85157910	         -5.75361821	          1.99123401	          0.85828817	          0.00038555	         28.38691273	          3.37671597	         -1.87033426	        -15.56060205	         -2.04222622	          6.72908302	        -19.06259122	        -17.40422162	          1.84095784	         -3.30169483	          1.20682839	         15.81647210	         -0.61704730	         -6.03164983	          2.26055356	         26.94848874	         -0.48156584	         -0.85917472	          1.79666392	        -10.19766335	        -13.59847188	         10.95363841	          5.21904914	        -13.56053984	         18.27417091	         14.44472508	         31.99484616	         86.51662706	         86.51662706	          0.41240312	          0.45311889	          0.49792008	          0.26993298	          0.36407986	          0.34784959	          0.07771805	          0.10983467	          0.08185497	          0.08065296	          0.05000047	          0.07451735	          0.22651962	          0.27123767	          0.18775240	          0.15345335	          0.05000009	          0.05864063	          0.10421502	          0.27313303	          0.19715333	          0.14846679	          0.05000002	          0.05000004	          0.40124935	          0.08065784	          0.18858218	          0.05000001	          0.28478736	          0.31219627	          0.25495067	          0.05000000	          0.05000000	          0.05000000	          0.07981427	          0.05000033	          0.05000006	          0.63063582	          0.17169772	          0.09706041	          0.44299336	          0.54923216	          0.32546460	          0.07092655	          0.06877073	          0.06877085	          0.24014667	          0.06056249	          0.05000001	          0.18144669	          0.12297143	          0.06080958	          0.06743981	          0.05000020	          0.05000016	          0.05000022	          0.05863876	          0.18315461	          0.28648910	          0.17407693	          0.05771648	          0.09918159	          0.29839660	          0.05002720	          0.05000023	          0.05000028	          0.05000022	          0.05000016	          0.16229089	          0.35108163	          0.05000001	          0.05000012	          0.05000008	          0.09939829	          0.06267385	          0.10963216	          0.08758141	          0.16394235	          0.21226297	          0.14192752	          0.12281173	          0.12766565	          0.15879465	          0.24039693	          0.10356351	          0.13574162	          0.35995210	          0.25523815	          0.15094895	          0.11692267	          0.05237964	          0.05000001	
